<svg t="1779440102435" class="icon" viewBox="207 207 610 610" version="1.1" xmlns="http://www.w3.org/2000/svg" p-id="8516" width="200" height="200"><path d="M498.65419127 692.26448693c-45.55172939 21.73811383-97.85410111 35.26316118-154.49282526 21.90920524-56.6394031-13.36006635-96.83366305-49.57780894-89.92686588-116.44535511 6.91969692-66.87229872 78.40195856-89.93229735 137.19222508-89.93229736 58.81063454 0 170.37037947 38.10314275 170.37037946 38.10314274s9.37404389-21.00418601 18.48194562-45.01808713c9.10111237-24.01050646 11.68445683-43.30581519 11.68445684-43.30581519H354.39833524v-23.80818409h115.41541199v-45.5476558l-143.8831212 1.03605353v-30.02111054h143.8831212v-68.3211442h75.5680874v68.32046527H699.62345426v30.02111055l-154.24094069 1.03469566v42.44085307l127.35718488 1.03605353s-2.30226573 23.80818409-18.44664105 67.11399928c-16.12808091 43.30445733-31.27238619 65.38950653-31.2723862 65.38950653L816.16250229 629.64503175V329.50249863C816.16250229 262.30906405 761.69093595 207.83749771 694.49750137 207.83749771H329.50249863C262.30906405 207.83749771 207.83749771 262.30906405 207.83749771 329.50249863v364.99500274C207.83749771 761.69093595 262.30906405 816.16250229 329.50249863 816.16250229h364.99500274c56.0032418 0 103.04387379-37.88859955 117.2003299-89.39390257L588.8621359 621.13459212s-44.66164672 49.39110203-90.20794461 71.12989481z" fill="#1890ff" p-id="8517"></path><path d="M366.69315387 544.50125702c-70.91874628 4.51423321-88.24378811 35.71533134-88.2437881 64.42474109s17.51106979 68.62191204 100.85431114 68.62191204c83.32355227 0 154.0562706-84.03168059 154.0562706-84.03168061s-95.76841538-53.52852681-166.66679364-49.01497252z" fill="#1890ff" p-id="8518"></path></svg>
