<?xml version="1.0" standalone="no"?><!DOCTYPE svg PUBLIC "-//W3C//DTD SVG 1.1//EN" "http://www.w3.org/Graphics/SVG/1.1/DTD/svg11.dtd"><svg class="icon" width="200px" height="200.00px" viewBox="0 0 1024 1024" version="1.1" xmlns="http://www.w3.org/2000/svg"><path d="M811.8784 2.304H212.1728c-115.456 0-209.92 94.2592-209.92 209.5616v402.7392c132.9152 77.8752 309.5552 125.44 503.3984 125.44 200.0896 0 381.8496-50.688 516.096-133.0688V211.8656a210.3296 210.3296 0 0 0-209.92-209.5616z" fill="#FD2821" /><path d="M505.6512 742.2464c-187.0336 0-366.2336-44.5952-504.5248-125.6448L0 615.936V211.8656A212.6336 212.6336 0 0 1 212.1216 0h599.7568A212.6336 212.6336 0 0 1 1024 211.8656v396.3904l-1.1264 0.6656c-140.032 86.016-323.7376 133.3248-517.2224 133.3248zM4.608 613.376c137.4208 80.2304 315.4432 124.416 501.0944 124.416 192.2048 0 374.6304-46.8992 513.8432-132.0448V211.8656a208.0768 208.0768 0 0 0-207.616-207.36H212.1728a208.0768 208.0768 0 0 0-207.616 207.36v401.408z" fill="#C54953" /><path d="M2.304 614.6048v197.7856a210.0736 210.0736 0 0 0 209.5616 209.3056h600.32a210.0736 210.0736 0 0 0 209.5616-209.3056v-205.4144c-134.2464 82.432-316.0064 133.0176-516.096 133.0176-193.8432 0-370.4832-47.4624-503.3472-125.3888z" fill="#FFFFFF" /><path d="M812.1856 1024H211.8656A212.3264 212.3264 0 0 1 0 812.3904v-201.728l3.4304 1.9968c137.5744 80.64 316.0064 125.0816 502.2208 125.0816 192.6656 0 375.552-47.104 514.9184-132.6592l3.4304-2.048v209.408A212.3776 212.3776 0 0 1 812.1856 1024zM4.5568 618.5984v193.792a207.8208 207.8208 0 0 0 207.36 207.0528h600.2688a207.7696 207.7696 0 0 0 207.3088-207.0528v-201.3184c-139.6224 84.6336-321.8944 131.1744-513.8432 131.1744-185.4976 0-363.3152-43.8784-501.0944-123.648z" fill="#C54953" /><path d="M113.6128 190.0544h201.984c12.6464 0 18.9952 6.3488 18.9952 18.9952 0 12.6976-6.3488 18.9952-18.9952 18.9952H113.6128c-12.6976 0-19.0464-6.2976-19.0464-18.944 0-12.6976 6.3488-19.0464 19.0464-19.0464z m310.9376 64.6656v162.1504c0 12.6464-6.3488 18.944-18.9952 18.944-12.6976 0-19.0464-6.2976-19.0464-18.944V254.72c0-12.6976 6.3488-18.9952 19.0464-18.9952 12.6464 0 18.944 6.2976 18.944 18.944z m368.4864 27.8016l52.736 52.6848c9.0112 8.9088 9.0112 17.8688 0 26.7776-8.9088 8.96-17.8176 8.96-26.7776 0l-52.736-52.6848c-8.96-8.9088-8.96-17.8688 0-26.7776 8.9088-8.96 17.92-8.96 26.8288 0zM254.0544 491.52h15.616l-12.9024 67.8912c-1.28 7.168-0.256 12.6464 3.0208 16.384 3.072 3.9424 7.68 5.9392 13.7728 5.9392 5.9392 0 11.6736-2.048 16.1792-5.9392a27.7504 27.7504 0 0 0 9.0624-16.384L311.7056 491.52h15.5648l-13.312 69.632a43.9808 43.9808 0 0 1-15.5136 26.3168 43.5712 43.5712 0 0 1-27.9552 10.24c-10.3424-0.1024-18.2784-3.5328-23.9104-10.24-5.8368-6.5024-7.7824-15.2576-5.7344-26.3168l13.2096-69.632z m82.3808 30.3616h14.7968l-1.536 7.9872h0.3072a28.6208 28.6208 0 0 1 20.736-8.9088 20.5824 20.5824 0 0 1 15.4624 6.6048c4.096 4.4032 5.4784 10.9056 4.096 19.456l-9.472 49.8176h-14.848l8.4992-44.5952c1.024-5.2736 0.4096-9.216-1.792-11.9808a11.8272 11.8272 0 0 0-9.5744-4.2496c-4.1472-0.0512-8.192 1.4336-11.264 4.1984a19.8656 19.8656 0 0 0-6.4512 11.9808l-8.4992 44.5952h-14.7968l14.336-74.9056z m73.8304 0h14.848l-14.2848 74.9056h-14.848l14.336-74.9056z m5.7344-30.3616h14.848l-2.8672 15.104h-14.848l2.8672-15.104z m14.2848 67.7376c1.536-7.8848 3.328-13.9776 5.376-18.176a34.304 34.304 0 0 1 8.0384-10.496 36.7104 36.7104 0 0 1 9.728-6.7072 34.56 34.56 0 0 1 14.336-3.0208 27.648 27.648 0 0 1 13.5168 3.0208 20.1216 20.1216 0 0 1 6.912 6.7072c2.4576 2.9696 3.8912 6.656 4.2496 10.496a71.168 71.168 0 0 1-1.7408 18.176c-1.536 7.8848-3.2256 13.8752-5.1712 17.9712a33.536 33.536 0 0 1-8.192 10.8032 30.3104 30.3104 0 0 1-4.096 3.2256 20.4288 20.4288 0 0 1-5.376 3.1232 32.5632 32.5632 0 0 1-14.6432 3.2768 24.7808 24.7808 0 0 1-20.4288-9.6256 23.2448 23.2448 0 0 1-3.9936-10.752c-0.512-4.1472 0-10.24 1.536-18.0736h-0.0512z m45.6704 0.1536c0.8192-3.84 1.3312-7.7824 1.536-11.7248a11.6224 11.6224 0 0 0-1.7408-6.144 8.2944 8.2944 0 0 0-4.096-4.0448 13.824 13.824 0 0 0-6.656-1.536 17.92 17.92 0 0 0-16.8448 11.776 62.3616 62.3616 0 0 0-2.9696 11.52 55.1936 55.1936 0 0 0-1.3312 11.4176c0 2.2016 0.512 4.4544 1.536 6.4512 1.0752 1.536 2.56 2.8672 4.1984 3.84 2.048 1.0752 4.3008 1.6384 6.6048 1.5872a18.1248 18.1248 0 0 0 17.0496-11.9296c1.2288-3.6352 2.1504-7.424 2.7648-11.264h-0.0512z m33.9968-37.5296h14.7968l-1.536 7.9872h0.3072a28.672 28.672 0 0 1 20.6848-8.9088 20.48 20.48 0 0 1 15.4112 6.5536c4.1472 4.4544 5.5296 10.9568 4.096 19.5072l-9.4208 49.8176h-14.848l8.5504-44.6464c1.024-5.2736 0.4096-9.216-1.792-12.032a11.6736 11.6736 0 0 0-9.5744-4.1472c-4.096-0.0512-8.1408 1.4336-11.264 4.1472a19.8144 19.8144 0 0 0-6.4512 12.032l-8.448 44.5952h-14.848l14.336-74.9056z m80.5376-30.3616h37.3248c3.84 0 7.68 0.3584 11.4688 1.1776a24.576 24.576 0 0 1 10.24 6.144c3.072 2.7136 5.12 6.2464 6.0416 10.1376a31.1296 31.1296 0 0 1 0.3072 15.0016 40.448 40.448 0 0 1-12.1344 21.2992 36.5568 36.5568 0 0 1-26.112 10.3936h-23.6032l-7.8336 41.1136h-15.616l19.968-105.2672z m6.2976 49.152h23.1936a19.6608 19.6608 0 0 0 14.1312-5.5296 22.1184 22.1184 0 0 0 6.3488-20.4288 9.984 9.984 0 0 0-3.9936-5.12 16.6912 16.6912 0 0 0-10.5984-3.0208h-22.528l-6.5536 34.048z m96.256 49.4592h-0.3072a16.2816 16.2816 0 0 1-7.424 5.6832 32.512 32.512 0 0 1-12.0832 1.8944c-8.192-0.1024-14.08-2.304-17.664-6.656-3.84-4.1984-5.12-9.6256-3.9424-16.2304a26.5216 26.5216 0 0 1 9.1136-15.6672 28.3648 28.3648 0 0 1 19.0464-6.5024h20.3776l1.536-7.8336c1.3312-6.656-3.072-9.8304-13.2608-9.6256a28.2624 28.2624 0 0 0-8.9088 1.1264 13.9776 13.9776 0 0 0-6.0928 4.608l-9.8816-8.96a34.4576 34.4576 0 0 1 26.9312-11.008c9.216-0.1024 16.2304 1.6896 21.0432 5.3248 4.8128 3.6864 6.4 10.0864 4.7616 19.3536l-9.728 51.2h-14.848l1.28-6.656z m4.8128-25.088h-17.664c-8.6016 0.1536-13.4144 3.1744-14.4384 8.96a6.7072 6.7072 0 0 0 2.0992 6.5024c1.7408 1.9968 5.12 2.9696 9.984 2.9696a27.648 27.648 0 0 0 13.5168-2.2528c2.6112-1.5872 4.4544-5.2224 5.5296-10.8544l1.024-5.376z m27.7504-43.2128h15.6672l7.3728 52.48h0.3072l27.3408-52.48h15.7184l-48.9472 90.4704a28.0064 28.0064 0 0 1-10.5984 11.6736 27.8528 27.8528 0 0 1-12.8 3.1232h-4.9152l2.7136-14.1824h4.3008c4.352 0 8.2944-2.56 10.0864-6.5024l6.4-12.544-12.6464-72.0384z m-4.3008-340.0192c11.264 0 16.896 5.632 16.896 16.896v220.416c0 11.264-5.632 16.896-16.896 16.896-11.264 0-16.9472-5.632-16.9472-16.896V198.656c0-11.264 5.632-16.896 16.896-16.896z" fill="#FFFFFF" /><path d="M737.1776 179.9168a19.0464 19.0464 0 0 0-26.8288 0.3584l-73.984 75.8784v-44.8a18.688 18.688 0 0 0-1.3312-6.8096 18.9952 18.9952 0 0 0-18.432-14.6944h-177.152L430.592 181.248a18.9952 18.9952 0 1 0-26.4704 27.136l14.336 14.0288c3.584 3.5328 8.5504 5.4272 13.6192 5.3248l1.4336 0.0512h164.864v67.328l-15.0528 15.4624-52.224-52.1728a19.3024 19.3024 0 0 0-3.584-2.7648 19.0464 19.0464 0 0 0-26.5216 0.3072l-66.048 65.8432a18.9952 18.9952 0 0 0 26.88 26.8288l52.9408-52.8896 53.6576 53.6064a18.8416 18.8416 0 0 0 6.9632 4.352 19.0976 19.0976 0 0 0 22.3744-3.584l0.6144-0.6144v45.2608a2.9184 2.9184 0 0 1-2.2528 3.1744l-19.6096 0.256a18.9952 18.9952 0 1 0 0.512 37.888l37.5808-0.4608c0.512 0 0.9728 0 1.4336-0.1024a18.9952 18.9952 0 0 0 20.3264-18.944V310.528l101.1712-103.7824a18.9952 18.9952 0 0 0-0.3584-26.7776z m199.0656 40.8576h-15.8208v-26.5216a18.9952 18.9952 0 1 0-37.9904 0v26.5216h-105.8816a18.944 18.944 0 0 0 0 37.888h105.9328v140.0832a2.9184 2.9184 0 0 1-2.304 2.6624h-24.9856a18.9952 18.9952 0 1 0 0 37.888h45.9776a22.7328 22.7328 0 0 0 19.3536-22.0672V258.6112h15.872a18.944 18.944 0 0 0-0.1024-37.888zM172.3904 320.512a18.432 18.432 0 0 0 1.1264-4.608h160.256a18.9952 18.9952 0 1 0 0-37.888H96.8192a18.9952 18.9952 0 1 0 0 37.888h36.608l-34.9184 90.7264a18.9952 18.9952 0 0 0 7.2192 22.528c3.584 4.1984 8.8064 6.656 14.336 6.656h201.3184a18.944 18.944 0 0 0 4.2496-0.512 18.9952 18.9952 0 0 0 18.6368-25.1904l-20.48-58.368a18.9952 18.9952 0 0 0-35.84 12.5952l10.7008 30.464a2.9184 2.9184 0 0 1-2.304 3.072H146.688a2.9184 2.9184 0 0 1-2.56-3.9424l28.2624-73.4208z" fill="#FFFFFF" /><path d="M588.4928 359.7312l150.2208-154.2144 1.6384 1.5872-150.2208 154.2144-1.6384-1.5872zM492.032 275.2l1.6384-1.5872 95.232 96-1.6384 1.5872-95.232-96z" fill="#FF2217" /><path d="M657.4592 783.5648h-141.7216l-40.6528 191.0272h137.0112c6.4512 0 13.2096-6.144 15.0016-13.6192l38.912-163.7888c1.792-7.4752-2.048-13.6192-8.5504-13.6192z" fill="#066B6A" /><path d="M557.2096 783.5648H412.9792c-6.4512 0-13.2096 6.144-15.0016 13.6192l-38.8608 163.84c-1.792 7.4752 2.048 13.6192 8.5504 13.6192h148.8896l40.6528-191.0784z" fill="#0A2F69" /><path d="M476.3136 783.5648H412.9792c-6.4512 0-13.2096 6.144-15.0016 13.6192l-38.8608 163.84c-1.792 7.4752 2.048 13.6192 8.5504 13.6192h67.9936l40.6528-191.0784z" fill="#E41D21" /><path d="M436.1216 975.1552H367.616a9.0112 9.0112 0 0 1-7.168-3.3792 12.8 12.8 0 0 1-1.8944-10.9568l38.912-163.7376c1.8432-7.7824 8.8064-14.08 15.5136-14.08h64l-40.8576 192.1536z m-23.1424-191.0272c-6.1952 0-12.6976 5.888-14.4384 13.2096l-38.8608 163.7376a11.7248 11.7248 0 0 0 1.6384 9.984c1.536 1.9456 3.84 3.072 6.2976 3.0208H435.2l40.448-189.952H412.928z" fill="#C54953" /></svg>